<svg width="20" height="20" fill="none" xmlns="http://www.w3.org/2000/svg"><path d="M6.162 3.125C6.497 1.794 8.21.512 10 .512s3.504 1.282 3.838 2.613h.561a3.667 3.667 0 013.641 3.232l1.04 8.708a3.667 3.667 0 01-3.642 4.102H4.562a3.667 3.667 0 01-3.641-4.102L1.96 6.357A3.667 3.667 0 015.6 3.125h.562v0zm1.474 0h4.729C11.994 2.53 11.012 1.887 10 1.887c-1.011 0-1.993.643-2.365 1.238h0zM5.6 4.5a2.292 2.292 0 00-2.276 2.02l-1.038 8.71a2.292 2.292 0 002.275 2.563h10.877a2.29 2.29 0 002.276-2.563l-1.04-8.709A2.292 2.292 0 0014.4 4.5H5.601v0zm.11 6.892a.688.688 0 011.245-.584c.532 1.136 1.73 1.896 3.046 1.896 1.315 0 2.51-.76 3.043-1.896a.688.688 0 011.245.584c-.76 1.619-2.44 2.687-4.288 2.687-1.849 0-3.532-1.069-4.291-2.687h0z" fill="#000" stroke="#000" stroke-width=".5"/></svg>