<svg width="32" height="32" fill="none" xmlns="http://www.w3.org/2000/svg"><path d="M21.702 11.756a1.496 1.496 0 00-1.196-.598h-2.281V9.662h1.495a1.496 1.496 0 001.496-1.496V5.923a1.495 1.495 0 00-1.496-1.496h-2.094a5.127 5.127 0 00-2.58.673c-.934.561-2.056 1.72-2.056 4.039v1.981h-1.496a1.359 1.359 0 00-1.047.45 1.653 1.653 0 00-.449 1.046v2.244a1.496 1.496 0 001.496 1.495h1.496v9.722a1.495 1.495 0 001.495 1.496h2.244a1.497 1.497 0 001.496-1.496v-9.722h1.757a1.496 1.496 0 001.421-1.084l.524-2.244a1.324 1.324 0 00-.225-1.27zm-1.72 3.104H16.73v11.217h-2.244V14.86h-2.991v-2.244h2.991V9.14c0-3.03 2.543-3.216 3.141-3.216h2.094v2.243h-1.944c-1.084 0-1.047.898-1.047.898v3.552h3.777l-.524 2.244z" fill="#000" stroke="#000" stroke-width=".4"/></svg>