<svg width="32" height="32" fill="none" xmlns="http://www.w3.org/2000/svg"><path d="M20 16a3.85 3.85 0 00-1.172-2.828A3.854 3.854 0 0016 12a3.85 3.85 0 00-2.828 1.172A3.853 3.853 0 0012.001 16c0 1.104.39 2.047 1.171 2.828A3.854 3.854 0 0016 20a3.854 3.854 0 002.828-1.172A3.853 3.853 0 0020 16zm2.156 0c0 1.709-.6 3.162-1.797 4.36-1.199 1.197-2.652 1.796-4.36 1.797-1.708 0-3.16-.599-4.359-1.798-1.198-1.199-1.797-2.652-1.797-4.36 0-1.707.599-3.16 1.797-4.358 1.198-1.2 2.651-1.798 4.36-1.798 1.707 0 3.16.6 4.359 1.798 1.198 1.197 1.797 2.65 1.797 4.359zm1.688-6.406c0 .396-.14.735-.422 1.016-.281.281-.62.422-1.016.422s-.735-.141-1.016-.422a1.384 1.384 0 01-.422-1.016c0-.396.141-.735.422-1.016s.62-.422 1.016-.422.735.14 1.016.422c.281.281.422.62.422 1.016zm-7.845-3.438l-1.195-.008a84.101 84.101 0 00-1.649 0 57.17 57.17 0 00-1.507.047c-.63.027-1.167.079-1.61.157a6.295 6.295 0 00-1.117.289c-.52.208-.979.51-1.374.906a4.073 4.073 0 00-.907 1.375c-.114.302-.21.675-.289 1.117-.078.443-.13.98-.156 1.61a57.17 57.17 0 00-.047 1.507c-.006.375-.006.925 0 1.649L6.155 16l-.007 1.195a84.101 84.101 0 000 1.649c.005.375.02.877.047 1.507.026.63.078 1.167.156 1.61.079.442.175.815.29 1.117a4.081 4.081 0 002.28 2.281c.302.114.675.21 1.118.289.442.078.979.13 1.609.156.63.027 1.132.042 1.508.048.375.005.924.005 1.648 0a241.54 241.54 0 011.195-.008c.073 0 .472.002 1.196.008.723.005 1.273.005 1.648 0 .375-.006.878-.021 1.508-.048.63-.026 1.166-.078 1.609-.156a6.293 6.293 0 001.117-.289 4.081 4.081 0 002.281-2.281 6.31 6.31 0 00.29-1.117c.077-.443.13-.98.156-1.61.026-.63.042-1.132.047-1.507a84.91 84.91 0 000-1.649L25.843 16l.008-1.195a84.91 84.91 0 000-1.649 57.414 57.414 0 00-.047-1.508 12.393 12.393 0 00-.157-1.609 6.293 6.293 0 00-.289-1.117 4.036 4.036 0 00-.906-1.375 4.072 4.072 0 00-1.375-.906 6.295 6.295 0 00-1.117-.289c-.443-.078-.98-.13-1.61-.157a57.382 57.382 0 00-1.507-.047 84.1 84.1 0 00-1.648 0l-1.196.008zM28 16c0 2.385-.026 4.036-.078 4.953-.104 2.167-.75 3.844-1.937 5.032-1.187 1.187-2.864 1.833-5.031 1.937-.917.052-2.568.078-4.954.078-2.386 0-4.037-.026-4.953-.078-2.167-.105-3.844-.75-5.032-1.937-1.187-1.188-1.833-2.865-1.937-5.032C4.026 20.037 4 18.386 4 16s.026-4.037.078-4.954c.105-2.166.75-3.843 1.937-5.03 1.187-1.189 2.865-1.834 5.032-1.938C11.963 4.026 13.614 4 16 4s4.037.026 4.954.078c2.166.104 3.843.75 5.03 1.937 1.189 1.187 1.834 2.864 1.938 5.032.052.916.078 2.567.078 4.953z" fill="#000"/></svg>