<svg width="40" height="40" fill="none" xmlns="http://www.w3.org/2000/svg"><path d="M13.889 6.381A6.1 6.1 0 0119.996.275a6.1 6.1 0 016.106 6.106c0 5.782-6.107 6.432-6.107 10.2 0-3.768-6.106-4.418-6.106-10.2zm21.048 9.81l-.325-.065c-.325-.065-.65-.065-.974-.13-.195 0-.455 0-.715.065-3.703.065-8.38 1.494-10.394.52 2.404 1.169 3.963 7.015 7.276 9.679l.065.065.195.195c.065 0 .065.065.13.065.065.065.13.065.195.13.194.13.454.26.65.39 2.922 1.364 6.366.13 7.795-2.794 1.364-2.923.13-6.366-2.794-7.795-.324-.065-.714-.195-1.104-.325zm-30.987.39c-2.924 1.364-4.158 4.872-2.794 7.795 1.365 2.923 4.873 4.158 7.796 2.793.26-.13.455-.26.65-.39.064-.064.13-.064.194-.13.065 0 .065-.064.13-.064l.195-.195.065-.065c3.313-2.664 4.872-8.51 7.276-9.68-2.079.975-6.691-.454-10.394-.52-.26 0-.455-.064-.715-.064-.324 0-.65.065-.974.13l-.325.065v.065c-.39 0-.78.13-1.104.26z" fill="url(#paint0_linear)"/><path d="M13.5 35.16h12.992c-1.17 2.339-3.638 3.963-6.497 3.963-2.858 0-5.261-1.624-6.496-3.963zm8.185-14.292h-3.573c1.039-1.559 1.819-3.053 1.819-4.287.065 1.234.78 2.663 1.754 4.287zm3.638 5.587h-10.85c.52-.975 1.17-1.884 1.755-2.794h7.34c.585.91 1.17 1.884 1.755 2.794zm1.948 5.392v.454H12.72v-.454c0-.325 0-.65.065-.975 0-.13 0-.195.065-.324v-.195l.065-.39v-.065c.065-.26.13-.455.195-.715h13.642c.065.26.195.52.26.78l.064.39c.13.52.195 1.04.195 1.494z" fill="#000"/><defs><linearGradient id="paint0_linear" x1="31.476" y1="32.215" x2="8.517" y2="9.257" gradientUnits="userSpaceOnUse"><stop stop-color="#FFAF00"/><stop offset="1" stop-color="#FFDC00"/></linearGradient></defs></svg>