<svg width="24" height="24" fill="none" xmlns="http://www.w3.org/2000/svg"><g clip-path="url(#clip0)" fill="#000"><path d="M16.304 6.757c0-.583-.173-1.161-.502-1.672-.678-1.053-1.036-2.312-1.036-3.64V.521A.522.522 0 0014.244 0H9.756a.522.522 0 00-.522.522v.922c0 1.329-.358 2.588-1.036 3.64a3.09 3.09 0 00-.502 1.673c0 .88.382 1.709 1.08 2.359v4.083A3.227 3.227 0 0012 16.422a3.227 3.227 0 003.223-3.223V9.116c.699-.65 1.081-1.479 1.081-2.36zm-2.125 6.441c0 1.202-.978 2.18-2.18 2.18a2.182 2.182 0 01-2.178-2.18V8.544c0-.592.236-1.141.637-1.542A1.564 1.564 0 0012 8.318c.777 0 1.423-.57 1.541-1.315.412.412.638.96.638 1.54v4.655zm-2.696-6.441V4.678a.517.517 0 011.034 0v2.079a.517.517 0 01-1.034 0zm3.595.825a3.209 3.209 0 00-1.517-1.858V4.679c0-.861-.7-1.562-1.561-1.562-.86 0-1.561.7-1.561 1.562v1.044a3.212 3.212 0 00-1.517 1.859 1.984 1.984 0 01-.182-.825c0-.388.113-.76.336-1.107.786-1.222 1.202-2.676 1.202-4.206v-.4h3.444v.4c0 1.53.416 2.984 1.202 4.206.223.346.336.719.336 1.107 0 .284-.063.562-.182.825z"/><path d="M12 11.097c-.77 0-1.395.626-1.395 1.395v.707a1.396 1.396 0 002.79 0v-.707c0-.769-.626-1.395-1.395-1.395zm.35 2.102a.351.351 0 01-.7 0v-.707a.351.351 0 01.7 0v.707zm-2.012 4.551h1.745a.522.522 0 100-1.044h-1.745a.522.522 0 100 1.044zm3.324.206h-1.745a.522.522 0 100 1.044h1.745a.522.522 0 100-1.044zm-3.324 2.294h1.745a.522.522 0 000-1.044h-1.745a.522.522 0 000 1.044zm3.324.206h-1.745a.522.522 0 000 1.044h1.745a.522.522 0 000-1.044zm-1.057 1.772a.522.522 0 00-.522-.522h-1.745a.522.522 0 000 1.044h1.745a.522.522 0 00.522-.522zm1.057.728h-1.745a.522.522 0 000 1.044h1.745a.522.522 0 100-1.044z"/></g><defs><clipPath id="clip0"><path fill="#fff" d="M0 0h24v24H0z"/></clipPath></defs></svg>