<svg width="24" height="24" fill="none" xmlns="http://www.w3.org/2000/svg"><g clip-path="url(#clip0)"><path d="M21.532 9.948a5.161 5.161 0 00-4.208-5.068A5.368 5.368 0 0011.985 0a5.372 5.372 0 00-5.339 4.88 5.164 5.164 0 00-4.208 5.068 5.14 5.14 0 001.38 3.51 5.14 5.14 0 003.4 1.631l.022.001a3.1 3.1 0 001.3 1.008 3.167 3.167 0 001.896.137c.286-.064.568-.163.846-.295v7.316c0 .41.315.744.703.744.388 0 .703-.333.703-.744v-7.303a3.68 3.68 0 001.573.372c.401 0 .795-.075 1.168-.227.515-.21.954-.554 1.3-1.007a5.164 5.164 0 004.803-5.143zM14.9 14.795c-.682.278-1.491.088-2.278-.534a.703.703 0 00-.436-.152h-.39a.698.698 0 00-.453.147c-.395.307-.815.517-1.214.607a1.747 1.747 0 01-1.058-.068c-.574-.233-.993-.808-1.181-1.604.69-.438 1.39-.557 1.966-.323.028.012.057.024.086.038a.703.703 0 001.006-.598c.03-.603.418-1.183 1.078-1.63.616.462.976 1.039 1 1.622a.704.704 0 001.005.606c.028-.014.057-.026.085-.038.575-.234 1.276-.115 1.966.323-.188.796-.607 1.37-1.181 1.604zm2.544-1.254c.045-.184.08-.375.106-.573a.703.703 0 00-.261-.641c-.973-.77-2.041-1.099-3.023-.949-.287-.831-.934-1.582-1.86-2.135a.704.704 0 00-.693-.017c-.997.534-1.693 1.292-1.999 2.153-.984-.153-2.056.176-3.03.948a.703.703 0 00-.262.641c.026.197.061.388.105.572a3.767 3.767 0 01-2.682-3.592 3.754 3.754 0 013.749-3.75c.643 0 1.278.167 1.838.482a.703.703 0 10.69-1.226 5.17 5.17 0 00-2.052-.64 3.963 3.963 0 013.916-3.408 3.959 3.959 0 013.955 3.955l-.001.044a.63.63 0 00-.005.152 3.93 3.93 0 01-.728 2.099.703.703 0 001.145.816c.466-.654.773-1.39.911-2.167a3.753 3.753 0 012.864 3.643 3.758 3.758 0 01-2.683 3.593z" fill="#000" stroke="#000" stroke-width=".3"/></g><defs><clipPath id="clip0"><path fill="#fff" d="M0 0h24v24H0z"/></clipPath></defs></svg>