<svg width="32" height="32" fill="none" xmlns="http://www.w3.org/2000/svg"><path d="M32 15.9c0-.079 0-.168-.004-.271-.003-.29-.01-.615-.017-.961a53.774 53.774 0 00-.158-2.925c-.107-1.29-.264-2.364-.478-3.172a4.983 4.983 0 00-3.51-3.517c-1.012-.272-2.99-.44-5.776-.543a168.72 168.72 0 00-4.16-.1c-.497-.007-.958-.01-1.372-.015h-1.05c-.414.004-.875.008-1.371.015-1.418.018-2.836.05-4.161.1-2.786.107-4.768.275-5.775.543A4.977 4.977 0 00.658 8.57c-.219.808-.372 1.883-.48 3.172a53.776 53.776 0 00-.157 2.925c-.01.346-.014.671-.017.96 0 .104-.004.194-.004.272v.2c0 .079 0 .168.004.271.003.29.01.615.017.961.029.997.079 1.99.158 2.925.107 1.29.264 2.364.478 3.172a4.977 4.977 0 003.51 3.518c1.008.27 2.99.439 5.776.542a167.7 167.7 0 004.16.1c.497.008.958.011 1.372.015h1.05c.414-.004.875-.008 1.371-.015 1.418-.017 2.836-.05 4.161-.1 2.786-.107 4.768-.275 5.775-.543a4.97 4.97 0 003.51-3.517c.219-.807.372-1.882.48-3.172a54.79 54.79 0 00.174-3.885c0-.104.004-.193.004-.272v-.2zm-2.571.186c0 .075 0 .157-.004.253-.004.279-.01.586-.018.918-.025.95-.075 1.9-.15 2.782-.096 1.15-.232 2.093-.4 2.725a2.403 2.403 0 01-1.693 1.697c-.75.2-2.639.36-5.207.457a161.982 161.982 0 01-5.446.11h-1.022l-1.35-.01a163.29 163.29 0 01-4.096-.1c-2.568-.1-4.46-.257-5.207-.457a2.41 2.41 0 01-1.693-1.697c-.168-.632-.304-1.575-.4-2.725a51.725 51.725 0 01-.15-2.782c-.01-.332-.014-.643-.018-.918 0-.096-.004-.182-.004-.253v-.172c0-.075 0-.157.004-.253.004-.279.01-.586.018-.918.025-.95.075-1.9.15-2.782.096-1.15.232-2.093.4-2.725a2.403 2.403 0 011.693-1.697c.75-.2 2.639-.36 5.207-.457a162.264 162.264 0 015.446-.11h1.022l1.35.01c1.396.018 2.793.05 4.096.1 2.568.1 4.46.257 5.207.457a2.41 2.41 0 011.693 1.697c.168.632.304 1.575.4 2.725.075.882.122 1.832.15 2.782.01.332.014.643.018.918 0 .096.004.182.004.253v.172zm-16.608 4.7l8.286-4.822-8.286-4.75v9.572z" fill="#000"/></svg>